<svg xmlns="http://www.w3.org/2000/svg" viewBox="0 0 512 390"><defs><style>.cls-1{fill:#22a5df;}</style></defs><title>icon-mail</title><g id="Layer_2" data-name="Layer 2"><g id="Capa_1" data-name="Capa 1"><path class="cls-1" d="M467,0H45A44.48,44.48,0,0,0,25.72,4.51L255,233.79l51.39-49.39h0L486.29,4.51A44.48,44.48,0,0,0,467,0Z"/><path class="cls-1" d="M507.5,25.73,338.21,195,507.49,364.28A44.48,44.48,0,0,0,512,345V45A44.48,44.48,0,0,0,507.5,25.73Z"/><path class="cls-1" d="M4.51,25.72A44.48,44.48,0,0,0,0,45V345a44.49,44.49,0,0,0,4.51,19.27L173.79,195Z"/><path class="cls-1" d="M317,216.21l-51.4,49.39a15,15,0,0,1-21.21,0L195,216.21,25.71,385.49A44.48,44.48,0,0,0,45,390H467a44.48,44.48,0,0,0,19.28-4.51Z"/></g></g></svg>