<svg xmlns="http://www.w3.org/2000/svg" viewBox="0 0 384 384"><defs><style>.cls-1{fill:#22a5df;}</style></defs><title>icon-phone</title><g id="Layer_2" data-name="Layer 2"><g id="Capa_1" data-name="Capa 1"><path class="cls-1" d="M353.19,252.05a218,218,0,0,1-68.47-10.91c-10.72-3.66-23.9-.3-30.44,6.42L211.1,280.16C161,253.43,130.19,222.59,103.82,172.9l31.64-42.05a31,31,0,0,0,7.63-31.45,218.36,218.36,0,0,1-10.95-68.58A30.85,30.85,0,0,0,101.33,0H30.81A30.85,30.85,0,0,0,0,30.81C0,225.56,158.44,384,353.19,384A30.85,30.85,0,0,0,384,353.19V282.86A30.85,30.85,0,0,0,353.19,252.05Z"/></g></g></svg>